<svg width="960" height="960" viewBox="0 0 960 960" fill="none" xmlns="http://www.w3.org/2000/svg">
<g clip-path="url(#clip0_385_965)">
<path fill-rule="evenodd" clip-rule="evenodd" d="M472.45 370.466L472.408 370.342C483.084 366.507 489.354 354.505 486.036 343.622C487.83 345.587 490.044 347.122 492.514 348.113C494.984 349.104 497.646 349.524 500.301 349.342C502.956 349.161 505.536 348.383 507.849 347.066C510.161 345.749 512.146 343.927 513.657 341.736C513.99 344.995 515.351 348.064 517.545 350.497C519.738 352.931 522.649 354.603 525.857 355.272C528.384 355.722 530.985 355.505 533.403 354.64C537.194 353.352 540.327 350.628 542.13 347.053C542.144 351.996 546.29 356.359 551.13 357.396C555.97 358.433 561.132 356.525 564.77 353.188C568.408 349.851 570.688 345.239 572.046 340.482C573.113 336.75 573.652 332.708 572.46 329.008C571.268 325.308 567.993 322.084 564.106 321.939C568.833 318.156 572.306 312.623 572.865 306.59C573.424 300.557 570.751 294.163 565.651 290.908C560.551 287.653 553.13 288.182 549.016 292.628C551.576 286.918 549.068 279.631 543.865 276.159C538.662 272.687 531.427 272.967 526.11 276.273C523.496 278.003 521.292 280.284 519.652 282.955C518.012 285.626 516.976 288.623 516.616 291.737C515.878 289.432 514.291 287.494 512.178 286.315C510.065 285.135 507.582 284.803 505.233 285.386C502.885 285.968 500.845 287.421 499.527 289.451C498.209 291.48 497.712 293.935 498.136 296.318C492 289.851 480.652 291.032 473.925 296.878C467.198 302.724 464.265 311.834 462.99 320.654C453.589 316.28 441.566 320.903 435.928 329.599C430.29 338.295 430.46 349.903 434.56 359.428C425.45 363.574 420.475 375.1 423.688 384.583C426.901 394.066 437.866 400.171 447.619 397.932C446.5 402.287 449.558 407.043 453.776 408.587C457.994 410.131 462.908 408.847 466.452 406.079C469.996 403.311 472.328 399.248 473.883 395.03L474.65 394.978C474.095 386.794 473.362 378.623 472.45 370.466ZM559.437 294.52C558.702 294.138 557.796 294.424 557.414 295.159C557.032 295.894 557.318 296.8 558.054 297.182C559.331 297.846 560.45 298.779 561.332 299.918C562.214 301.057 562.837 302.373 563.16 303.777C563.483 305.18 563.498 306.637 563.203 308.047C562.907 309.456 562.309 310.785 561.45 311.941C560.956 312.606 561.094 313.545 561.759 314.039C562.424 314.534 563.364 314.395 563.858 313.73C564.976 312.226 565.755 310.497 566.139 308.662C566.523 306.827 566.504 304.931 566.084 303.104C565.664 301.277 564.851 299.563 563.704 298.081C562.556 296.599 561.1 295.384 559.437 294.52Z" fill="#fff"/>
<path d="M587.071 649.884L416.357 644.525C426.9 576.451 306.058 536.164 301.891 534.8L685.027 521.171C681.72 521.809 577.951 542.849 587.071 649.884Z" fill="#fff"/>
<path d="M507.213 452.439C512.592 452.387 517.974 452.342 523.36 452.305C525.136 452.13 526.925 452.434 528.543 453.186C529.365 453.729 530.059 454.443 530.577 455.281C531.095 456.118 531.425 457.058 531.543 458.036C531.761 459.998 531.688 461.982 531.326 463.923L531.512 466.193L461.609 471.9L461.515 470.812C461.132 467.922 461.132 464.995 461.515 462.105C461.917 459.186 463.446 456.541 465.775 454.736C468.522 452.819 472.097 452.715 475.456 452.694H475.694C486.193 452.604 496.7 452.519 507.213 452.439Z" fill="#fff"/>
<path d="M176.49 520.201C174.981 519.836 173.417 519.755 171.878 519.962C171.505 519.993 171.122 520.024 170.749 520.062L170.738 519.896C176.024 518.735 176.304 517.243 177.558 515.833C178.812 514.423 179.413 512.233 178.458 510.599C177.39 508.733 174.903 508.319 172.747 508.267C166.228 508.112 159.501 509.418 153.303 507.386L153.852 501.219L154.152 497.913C156.489 496.602 159.144 495.967 161.822 496.078C163.294 496.242 164.776 496.309 166.258 496.278C166.813 496.224 167.357 496.091 167.875 495.884L461.609 471.901L531.517 466.19L805.856 443.782L844.35 440.641L845.107 449.182L845.863 457.753C838.204 459.712 830.016 458.24 822.046 458.437C819.227 458.51 815.983 459.049 814.583 461.485C813.34 463.63 813.163 472.554 824.683 473.642L824.663 473.849C824.175 473.798 823.688 473.756 823.201 473.715C821.188 473.447 819.142 473.555 817.169 474.036C816.184 474.286 815.274 474.772 814.519 475.453C813.764 476.134 813.187 476.988 812.837 477.943C812.628 478.823 812.621 479.739 812.816 480.622C813.012 481.505 813.405 482.333 813.966 483.043C815.044 484.483 818.216 486.287 819.812 487.116C817.875 486.995 815.934 487.292 814.122 487.987C813.221 488.344 812.416 488.908 811.773 489.633C811.13 490.359 810.667 491.226 810.422 492.164C809.922 494.564 811.322 496.942 812.93 498.797C817.148 503.637 823.077 506.705 829.213 508.602C835.635 510.679 842.44 511.299 849.133 510.416C849.589 510.353 850.045 510.27 850.491 510.188L850.947 515.266L685.047 521.166H685.037L301.891 534.801L179.724 539.144C180.958 537.734 182.024 535.91 181.652 534.075C181.462 533.357 181.107 532.694 180.613 532.139C180.12 531.585 179.503 531.154 178.812 530.883C177.821 530.473 176.763 530.251 175.692 530.23L175.713 529.63C176.964 529.04 178.066 528.176 178.937 527.101C179.365 526.557 179.664 525.924 179.813 525.249C179.962 524.574 179.957 523.873 179.797 523.201C179.533 522.468 179.093 521.812 178.516 521.289C177.94 520.766 177.244 520.392 176.49 520.201V520.201Z" fill="white" fill-opacity="0.96"/>
<path d="M506.819 394.657C508.403 394.626 509.925 394.039 511.119 392.999C511.699 392.471 512.118 391.79 512.33 391.035C512.543 390.28 512.539 389.481 512.319 388.728C512.057 387.989 511.519 387.38 510.818 387.028C510.117 386.677 509.307 386.61 508.557 386.842" stroke="#fff" stroke-width="3" stroke-linecap="round" stroke-linejoin="round"/>
<path d="M510.736 372.85C514.716 372.84 518.707 372.819 522.687 372.798" stroke="#fff" stroke-width="3" stroke-linecap="round" stroke-linejoin="round"/>
<path d="M483.944 376.374C487.338 375.286 490.848 374.601 494.402 374.332" stroke="#fff" stroke-width="3" stroke-linecap="round" stroke-linejoin="round"/>
<path d="M504.8 403.042C503.024 403.522 501.21 403.848 499.379 404.016C497.845 404.172 496.301 404.286 494.767 404.441C491.409 404.783 487.967 405.395 485.097 407.177C482.246 408.95 480.059 412.121 480.277 415.459V415.531C480.547 419.221 483.728 422.231 487.277 423.294C490.826 424.357 494.657 423.823 498.253 422.931C499.414 422.641 500.565 422.31 501.715 421.988C504.11 421.235 506.565 420.684 509.053 420.34" stroke="#fff" stroke-width="3" stroke-linecap="round" stroke-linejoin="round"/>
<path d="M501.533 421.366C501.129 418.153 500.729 414.94 500.333 411.727C500.033 409.427 499.753 407.115 499.463 404.804" stroke="#fff" stroke-width="3" stroke-linecap="round" stroke-linejoin="round"/>
<path d="M481.7 415.408C487.794 414.195 493.892 412.982 499.993 411.77" stroke="#fff" stroke-width="3" stroke-linecap="round" stroke-linejoin="round"/>
<path d="M482.856 365.9C487.501 363.14 493.049 362.328 498.289 363.641" stroke="#fff" stroke-width="3" stroke-linecap="round" stroke-linejoin="round"/>
<path d="M517.318 358.2C520.749 357.434 524.344 358.055 527.318 359.93" stroke="#fff" stroke-width="3" stroke-linecap="round" stroke-linejoin="round"/>
<path d="M507.223 452.512C507.215 452.489 507.212 452.464 507.213 452.439C506.236 447.645 506.419 442.686 507.748 437.976C509.076 433.267 511.512 428.944 514.851 425.367C518.976 421.035 524.418 417.884 527.641 412.847C531.103 407.436 531.497 400.689 531.787 394.273C532.367 381.193 532.951 368.113 533.538 355.033" stroke="#fff" stroke-width="3" stroke-linecap="round" stroke-linejoin="round"/>
<path d="M472.45 370.466C473.362 378.623 474.096 386.794 474.65 394.978C475.936 413.821 476.281 432.695 475.687 451.6" stroke="#fff" stroke-width="3" stroke-linecap="round" stroke-linejoin="round"/>
<path d="M461.515 470.816C461.132 467.926 461.132 464.999 461.515 462.109C461.917 459.19 463.446 456.545 465.775 454.74C468.522 452.823 472.097 452.719 475.456 452.698H475.694C486.193 452.605 496.699 452.519 507.213 452.439C512.592 452.387 517.974 452.342 523.36 452.305C525.136 452.13 526.925 452.434 528.543 453.186C529.365 453.729 530.059 454.443 530.577 455.281C531.095 456.118 531.425 457.058 531.543 458.036C531.761 459.998 531.688 461.982 531.326 463.923" stroke="#fff" stroke-width="3" stroke-linecap="round" stroke-linejoin="round"/>
<path d="M473.88 395.03C472.325 399.248 469.993 403.311 466.449 406.079C462.905 408.847 457.991 410.131 453.773 408.587C449.555 407.043 446.497 402.287 447.616 397.932C437.863 400.171 426.898 394.066 423.685 384.583C420.472 375.1 425.447 363.574 434.557 359.428C430.457 349.903 430.287 338.295 435.925 329.599C441.563 320.903 453.586 316.28 462.987 320.654C464.262 311.834 467.195 302.724 473.922 296.878C480.649 291.032 491.997 289.851 498.133 296.318C497.709 293.935 498.206 291.48 499.524 289.451C500.842 287.421 502.882 285.968 505.231 285.386C507.579 284.803 510.062 285.135 512.175 286.315C514.289 287.494 515.875 289.432 516.613 291.737C516.973 288.623 518.01 285.626 519.649 282.955C521.289 280.284 523.493 278.003 526.107 276.273C531.424 272.967 538.659 272.687 543.862 276.159C549.065 279.631 551.573 286.918 549.013 292.628C553.127 288.182 560.548 287.653 565.648 290.908C570.748 294.163 573.421 300.557 572.862 306.59C572.303 312.623 568.83 318.156 564.103 321.939C567.99 322.084 571.265 325.308 572.457 329.008C573.649 332.708 573.11 336.75 572.043 340.482C570.685 345.239 568.405 349.851 564.767 353.188C561.129 356.525 555.967 358.433 551.127 357.396C546.287 356.359 542.141 351.996 542.127 347.053C540.325 350.628 537.191 353.352 533.4 354.64C530.983 355.505 528.381 355.722 525.854 355.272C522.647 354.603 519.735 352.931 517.542 350.497C515.349 348.064 513.987 344.995 513.654 341.736C512.143 343.927 510.158 345.749 507.846 347.066C505.533 348.383 502.953 349.161 500.298 349.342C497.643 349.524 494.981 349.104 492.511 348.113C490.041 347.122 487.827 345.587 486.033 343.622C489.349 354.505 483.079 366.507 472.403 370.342L472.051 370.466" stroke="#fff" stroke-width="3" stroke-linecap="round" stroke-linejoin="round"/>
<path d="M153.305 507.392L153.854 501.225L154.155 497.919" stroke="#fff" stroke-width="3" stroke-linecap="round" stroke-linejoin="round"/>
<path d="M685.027 521.167L301.891 534.796L179.724 539.139" stroke="#fff" stroke-width="3" stroke-linecap="round" stroke-linejoin="round"/>
<path d="M850.486 510.191L850.942 515.269L685.037 521.167" stroke="#fff" stroke-width="3" stroke-linecap="round" stroke-linejoin="round"/>
<path d="M167.846 495.888H167.878L461.609 471.905L531.517 466.194L805.856 443.786L844.35 440.645L845.107 449.186L845.863 457.757" stroke="#fff" stroke-width="3" stroke-linecap="round" stroke-linejoin="round"/>
<path d="M301.777 534.754C301.816 534.766 301.854 534.78 301.891 534.796C306.058 536.164 426.898 576.451 416.357 644.525L587.071 649.884C577.951 542.849 681.72 521.809 685.027 521.167H685.037C685.061 521.161 685.085 521.158 685.109 521.156" stroke="#fff" stroke-width="3" stroke-linecap="round" stroke-linejoin="round"/>
<path d="M164.79 487.492C159.597 485.875 153.814 486.974 149.098 489.669C144.444 492.518 140.528 496.424 137.665 501.069C133.643 507.215 130.846 514.315 130.618 521.642C130.39 528.969 132.95 536.557 138.288 541.594C142.109 545.092 146.908 547.337 152.042 548.03C157.16 548.702 162.364 548.228 167.277 546.642C171.962 545.191 176.502 542.848 179.725 539.142C180.959 537.732 182.024 535.908 181.652 534.073C181.463 533.355 181.107 532.692 180.614 532.138C180.12 531.583 179.503 531.153 178.812 530.881C177.822 530.471 176.764 530.25 175.693 530.228C175.293 530.207 174.874 530.197 174.469 530.207C169.235 530.307 164.178 531.949 159.006 532.757C153.834 533.565 148.165 533.441 143.906 530.415" stroke="#fff" stroke-width="3" stroke-linecap="round" stroke-linejoin="round"/>
<path d="M175.713 529.625C176.964 529.035 178.067 528.171 178.937 527.096C179.365 526.552 179.665 525.919 179.814 525.244C179.963 524.569 179.957 523.869 179.797 523.196C179.533 522.464 179.093 521.807 178.517 521.284C177.94 520.761 177.244 520.388 176.49 520.196C174.981 519.831 173.417 519.75 171.878 519.957C171.505 519.988 171.122 520.019 170.749 520.057C166.489 520.451 162.249 521.145 157.969 521.228C153.315 521.321 148.517 520.658 144.495 518.305" stroke="#fff" stroke-width="3" stroke-linecap="round" stroke-linejoin="round"/>
<path d="M170.738 519.9C176.024 518.739 176.304 517.247 177.558 515.837C178.812 514.427 179.413 512.237 178.458 510.603C177.39 508.737 174.903 508.323 172.747 508.271C166.228 508.116 159.501 509.422 153.303 507.39C152.111 507.007 150.803 506.333 150.515 505.11C150.437 504.688 150.46 504.253 150.58 503.841C150.701 503.428 150.916 503.05 151.209 502.736C151.792 502.108 152.471 501.576 153.22 501.161" stroke="#fff" stroke-width="3" stroke-linecap="round" stroke-linejoin="round"/>
<path d="M164.944 487.337C166.402 487.892 167.736 488.726 168.873 489.793C169.432 490.334 169.823 491.024 170 491.781C170.178 492.538 170.134 493.33 169.873 494.063C169.46 494.901 168.746 495.552 167.873 495.887C167.356 496.095 166.811 496.227 166.256 496.281C164.775 496.312 163.293 496.246 161.82 496.081C159.143 495.971 156.488 496.606 154.15 497.916C154.285 497.802 154.419 497.698 154.55 497.584" stroke="#fff" stroke-width="3" stroke-linecap="round" stroke-linejoin="round"/>
<path d="M805.856 443.785C816.065 425.523 846.807 430.591 852.974 434.115C859.141 437.639 864.033 443.08 867.93 449.029C873.184 457.052 876.843 466.329 877.13 475.929C877.417 485.529 874.083 495.43 867.108 502.018C862.462 506.276 856.693 509.114 850.483 510.195C850.037 510.277 849.583 510.36 849.125 510.423C842.433 511.306 835.628 510.687 829.205 508.609C823.069 506.709 817.14 503.644 812.922 498.804C811.315 496.949 809.916 494.575 810.414 492.171C810.66 491.234 811.123 490.367 811.766 489.641C812.409 488.916 813.213 488.352 814.114 487.994C815.927 487.3 817.867 487.003 819.804 487.123C826.634 487.247 833.257 489.393 840.015 490.45C846.773 491.507 854.194 491.341 859.77 487.382" stroke="#fff" stroke-width="3" stroke-linecap="round" stroke-linejoin="round"/>
<path d="M819.807 487.119C818.207 486.29 815.039 484.486 813.961 483.046C813.4 482.337 813.007 481.509 812.812 480.626C812.616 479.743 812.623 478.826 812.832 477.946C813.182 476.992 813.76 476.138 814.515 475.457C815.27 474.776 816.179 474.289 817.164 474.039C819.138 473.559 821.183 473.45 823.196 473.718C823.683 473.759 824.17 473.801 824.658 473.852C830.234 474.381 835.779 475.272 841.376 475.386C847.46 475.511 853.741 474.64 858.995 471.572" stroke="#fff" stroke-width="3" stroke-linecap="round" stroke-linejoin="round"/>
<path d="M824.678 473.645C813.163 472.557 813.34 463.633 814.578 461.488C815.978 459.052 819.222 458.513 822.041 458.44C830.011 458.24 838.199 459.715 845.858 457.756C846.397 457.622 846.936 457.467 847.475 457.29C849.03 456.782 850.73 455.901 851.113 454.305C851.215 453.752 851.187 453.184 851.031 452.644C850.874 452.104 850.595 451.609 850.213 451.196C849.497 450.335 846.637 449.734 845.694 449.133" stroke="#fff" stroke-width="3" stroke-linecap="round" stroke-linejoin="round"/>
<path d="M178.464 510.608L563.412 487.341" stroke="#fff" stroke-width="3" stroke-linecap="round" stroke-linejoin="round"/>
<path d="M810.975 495.884L422.705 510.834" stroke="#fff" stroke-width="3" stroke-linecap="round" stroke-linejoin="round"/>
<path d="M241.868 421.371L124.444 326.878" stroke="#fff" stroke-width="3" stroke-linecap="round" stroke-linejoin="round"/>
<path d="M190.289 442.606L162.148 430.687" stroke="#fff" stroke-width="3" stroke-linecap="round" stroke-linejoin="round"/>
<path d="M314.298 390.665L301.772 355.035" stroke="#fff" stroke-width="3" stroke-linecap="round" stroke-linejoin="round"/>
<path d="M199.068 595.746L150.456 672.566" stroke="#fff" stroke-width="3" stroke-linecap="round" stroke-linejoin="round"/>
<path d="M263.816 585.521V606.72" stroke="#fff" stroke-width="3" stroke-linecap="round" stroke-linejoin="round"/>
<path d="M725.831 584.637L749.974 595.746" stroke="#fff" stroke-width="3" stroke-linecap="round" stroke-linejoin="round"/>
<path d="M647.914 606.72V710.374" stroke="#fff" stroke-width="3" stroke-linecap="round" stroke-linejoin="round"/>
<path d="M766.436 548.348L902.517 568.312" stroke="#fff" stroke-width="3" stroke-linecap="round" stroke-linejoin="round"/>
<path d="M799.358 390.665L835.822 370.463" stroke="#fff" stroke-width="3" stroke-linecap="round" stroke-linejoin="round"/>
<path d="M749.974 386.671L817.59 281.884" stroke="#fff" stroke-width="3" stroke-linecap="round" stroke-linejoin="round"/>
<path d="M700.591 386.671L695.104 355.035" stroke="#fff" stroke-width="3" stroke-linecap="round" stroke-linejoin="round"/>
<path d="M224.309 645.74L799.358 649.886" stroke="#fff" stroke-width="3" stroke-linecap="round" stroke-linejoin="round"/>
<path d="M85.9611 385.981C96.6259 408.167 99.7284 433.236 94.7941 457.352C93.3771 464.177 91.2011 471.09 86.6311 476.352C82.0611 481.614 74.6161 484.875 67.9551 482.819C60.7891 480.606 56.4941 473.001 55.4281 465.578C54.5371 459.378 56.3921 451.678 62.3601 449.77C67.6601 448.07 73.4891 452.346 75.0931 457.67C77.4871 465.624 72.5051 474.035 66.2631 479.515C60.0211 484.995 52.3691 488.809 46.6511 494.834C40.9331 500.859 37.5431 510.461 41.9941 517.475C43.4374 519.75 45.5596 521.512 48.0603 522.513C50.5609 523.514 53.3131 523.703 55.9271 523.053C58.5411 522.403 60.8843 520.947 62.6248 518.892C64.3654 516.836 65.415 514.285 65.6251 511.599" stroke="#fff" stroke-width="3" stroke-linecap="round" stroke-linejoin="round"/>
<path d="M297.184 618.479C299.822 614.568 303.236 611.242 307.214 608.706" stroke="#fff" stroke-width="3" stroke-linecap="round" stroke-linejoin="round"/>
<path d="M307.336 619.175C303.533 616.619 300.507 613.067 298.586 608.907" stroke="#fff" stroke-width="3" stroke-linecap="round" stroke-linejoin="round"/>
<path d="M389.919 381.524C388.337 383.124 386.674 384.779 384.543 385.503C383.601 385.817 382.596 385.893 381.618 385.724C380.995 385.64 380.398 385.416 379.873 385.07C379.348 384.724 378.907 384.264 378.584 383.724C377.624 381.987 378.267 379.716 379.584 378.224C383.42 373.888 396.935 374.421 389.919 381.524Z" stroke="#fff" stroke-width="3" stroke-linecap="round" stroke-linejoin="round"/>
<path d="M399.993 321.535C403.334 320.693 406.829 320.678 410.177 321.491" stroke="#fff" stroke-width="3" stroke-linecap="round" stroke-linejoin="round"/>
<path d="M451.347 289.132C445.942 290.788 440.349 291.755 434.701 292.01C432.415 292.11 429.732 291.901 428.47 289.992C427.208 288.083 428.17 285.331 429.942 283.859C432.96 281.351 437.39 281.669 441.211 282.566C447.273 283.99 453.023 286.509 458.178 290.001" stroke="#fff" stroke-width="3" stroke-linecap="round" stroke-linejoin="round"/>
<path d="M554.9 250.7C552.295 252.336 550.435 254.928 549.718 257.919" stroke="#fff" stroke-width="3" stroke-linecap="round" stroke-linejoin="round"/>
<path d="M592.338 293.063C595.138 289.979 599.299 288.5 603.399 287.786C606.632 287.077 609.994 287.215 613.159 288.186C616.259 289.298 618.985 291.87 619.552 295.114C619.802 296.31 619.622 297.556 619.045 298.632C618.748 299.162 618.309 299.597 617.776 299.889C617.244 300.181 616.641 300.317 616.035 300.282C614.875 300.014 613.837 299.368 613.084 298.445L605.159 290.625" stroke="#fff" stroke-width="3" stroke-linecap="round" stroke-linejoin="round"/>
<path d="M589.2 319.928L589.531 319.671C591.649 318.94 593.934 318.836 596.11 319.372C598.285 319.908 600.26 321.062 601.795 322.694" stroke="#fff" stroke-width="3" stroke-linecap="round" stroke-linejoin="round"/>
<path d="M598.585 353.705C602.146 353.19 605.834 352.682 609.293 353.673C612.752 354.664 615.931 357.587 616.016 361.183C616.065 361.758 615.977 362.337 615.76 362.871C615.543 363.406 615.203 363.881 614.767 364.259C614.133 364.634 613.396 364.796 612.664 364.722C611.932 364.648 611.242 364.342 610.696 363.848C609.625 362.837 608.778 361.613 608.21 360.254C607.641 358.895 606.757 357.69 605.632 356.737" stroke="#fff" stroke-width="3" stroke-linecap="round" stroke-linejoin="round"/>
<path d="M737.91 311.279L729.673 301.935" stroke="#fff" stroke-width="3" stroke-linecap="round" stroke-linejoin="round"/>
<path d="M727.7 312.281C732.084 308.298 736.294 304.136 740.332 299.794" stroke="#fff" stroke-width="3" stroke-linecap="round" stroke-linejoin="round"/>
<path d="M883.609 331.3C883.709 338.621 881.796 345.8 880.009 352.9C878.222 360 876.542 367.273 877.126 374.572C877.71 381.871 880.912 389.314 887.044 393.314C893.176 397.314 902.431 396.74 906.858 390.909C911.285 385.078 908.034 374.744 900.778 373.766C896.402 373.175 892.04 375.913 889.763 379.696C887.486 383.479 887.004 388.096 887.345 392.503C887.637 396.281 888.557 400.145 890.887 403.134C895.523 409.082 904.12 409.919 910.487 413.955C921.665 421.037 923.268 439.247 913.498 448.172C909.845 451.509 904.221 453.498 899.932 451.033C895.643 448.568 895.672 440.578 900.514 439.561" stroke="#fff" stroke-width="3" stroke-linecap="round" stroke-linejoin="round"/>
<path d="M713 607.806L717.126 598.706" stroke="#fff" stroke-width="3" stroke-linecap="round" stroke-linejoin="round"/>
<path d="M718.864 606.38L709.537 600.247" stroke="#fff" stroke-width="3" stroke-linecap="round" stroke-linejoin="round"/>
<path d="M716.321 546.73L723.637 543.072" stroke="#fff" stroke-width="3" stroke-linecap="round" stroke-linejoin="round"/>
<path d="M722.473 549.315L718.007 538.005" stroke="#fff" stroke-width="3" stroke-linecap="round" stroke-linejoin="round"/>
<path d="M873.587 511.575C879.113 506.785 883.245 500.593 885.545 493.651C887.845 486.71 888.229 479.276 886.656 472.134" stroke="#fff" stroke-width="3" stroke-linecap="round" stroke-linejoin="round"/>
<path d="M890.481 505.79C893.316 502.477 895.079 498.384 895.539 494.049" stroke="#fff" stroke-width="3" stroke-linecap="round" stroke-linejoin="round"/>
<path d="M146.573 559.394C139.012 557.283 132.373 552.706 127.71 546.391C123.046 540.076 120.626 532.385 120.833 524.537" stroke="#fff" stroke-width="3" stroke-linecap="round" stroke-linejoin="round"/>
<path d="M128.1 559.681C125.837 559.175 123.801 557.948 122.296 556.184C120.791 554.42 119.9 552.215 119.757 549.901" stroke="#fff" stroke-width="3" stroke-linecap="round" stroke-linejoin="round"/>
<path d="M452.9 453.322C453.142 450.274 453.984 447.303 455.377 444.581C456.771 441.859 458.688 439.439 461.019 437.46" stroke="#fff" stroke-width="3" stroke-linecap="round" stroke-linejoin="round"/>
<path d="M545.589 447.959C545.879 442.697 544.742 437.455 542.298 432.786" stroke="#fff" stroke-width="3" stroke-linecap="round" stroke-linejoin="round"/>
<path d="M399.519 618.432C393.167 605.893 383.556 595.295 371.695 587.752" stroke="#fff" stroke-width="3" stroke-linecap="round" stroke-linejoin="round"/>
<path d="M602.716 612.55C604.726 595.981 612.542 580.661 624.775 569.308" stroke="#fff" stroke-width="3" stroke-linecap="round" stroke-linejoin="round"/>
<path d="M234.95 312.294L249.441 297.144" stroke="#fff" stroke-width="3" stroke-linecap="round" stroke-linejoin="round"/>
<path d="M247.533 312.433L234.374 299.255" stroke="#fff" stroke-width="3" stroke-linecap="round" stroke-linejoin="round"/>
<path d="M580.527 561.969L575.383 549.889" stroke="#fff" stroke-opacity="0.96" stroke-width="3" stroke-linecap="round" stroke-linejoin="round"/>
<path d="M520.594 586.336L528.943 578.104" stroke="#fff" stroke-opacity="0.96" stroke-width="3" stroke-linecap="round" stroke-linejoin="round"/>
<path d="M493.909 556.728L486.109 548.436" stroke="#fff" stroke-opacity="0.96" stroke-width="3" stroke-linecap="round" stroke-linejoin="round"/>
<path d="M556.558 628.788L549.621 616.657" stroke="#fff" stroke-opacity="0.96" stroke-width="3" stroke-linecap="round" stroke-linejoin="round"/>
<path d="M492.977 619.609L484.688 609.854" stroke="#fff" stroke-opacity="0.96" stroke-width="3" stroke-linecap="round" stroke-linejoin="round"/>
<path d="M444.1 595.683C447.124 592.918 449.68 589.682 451.668 586.099" stroke="#fff" stroke-opacity="0.96" stroke-width="3" stroke-linecap="round" stroke-linejoin="round"/>
<path d="M421.722 563.069L413.546 554.143" stroke="#fff" stroke-opacity="0.96" stroke-width="3" stroke-linecap="round" stroke-linejoin="round"/>
<path d="M444.113 636.164L453.879 629.351" stroke="#fff" stroke-opacity="0.96" stroke-width="3" stroke-linecap="round" stroke-linejoin="round"/>
<g opacity="0.1">
<path d="M511.113 345.719C507.685 347.363 505.813 349.155 501.872 349.407C498.621 349.709 495.346 349.215 492.328 347.968C488.456 346.358 484.428 351.04 485.608 354.687C486.821 358.434 483.549 361.268 481.323 363.859C478.903 366.674 476.542 369.594 475.409 373.202C473.188 380.276 473.527 389.06 473.865 396.378C474.265 404.948 475.445 413.448 475.505 422.051C475.537 426.775 474.48 431.223 474.205 435.875C473.933 440.475 473.778 445.092 473.699 449.699C473.605 455.131 482.043 455.131 482.136 449.699C482.216 445.099 482.247 440.476 482.107 435.875C481.965 431.217 481.116 426.756 481.284 422.051C481.617 412.778 483.517 403.645 483.955 394.404C484.16 390.074 483.745 385.621 484.288 381.316C484.856 376.809 487.452 373.827 490.294 370.483C494.819 365.161 498.568 358.963 496.143 351.783L489.424 358.503C494.083 360.371 500.39 360.796 504.91 358.213C508.591 356.113 513.472 352.666 514.487 348.313C514.594 347.875 514.571 347.416 514.421 346.99C514.272 346.565 514.002 346.192 513.645 345.918C513.287 345.643 512.858 345.478 512.408 345.443C511.959 345.407 511.509 345.503 511.113 345.719V345.719Z" fill="#fff
"/>
</g>
<g opacity="0.1">
<path d="M155.07 488.534C152.256 488.189 149.67 489.888 147.159 491.034C144.725 492.05 142.458 493.425 140.431 495.112C136.031 499.058 133.06 504.948 131.278 510.498C129.295 516.424 129.041 522.793 130.548 528.858C131.853 533.818 135.441 542.783 141.027 543.734C142.945 544.061 145.669 543.242 145.986 540.919C146.636 536.148 143.371 532.643 142.373 528.013C141.347 523.258 140.714 518.187 141.584 513.339C142.398 508.803 144.833 505.111 147.451 501.445C149.016 499.255 150.487 496.597 152.568 494.823C154.104 493.513 155.488 492.999 156.648 491.284C157.511 490.008 156.32 488.684 155.07 488.533V488.534Z" fill="#fff"/>
</g>
</g>
<defs>
<clipPath id="clip0_385_965">
<rect width="884" height="463" fill="white" transform="translate(38 249)"/>
</clipPath>
</defs>
</svg>
