<svg xmlns="http://www.w3.org/2000/svg" xmlns:xlink="http://www.w3.org/1999/xlink" version="1.1" width="100" height="100" viewBox="0 0 128 128" xml:space="preserve">
  <g transform="translate(1.4065934065934016 1.4065934065934016) scale(0.7025 0.7025)">
    <path d="M 45 -0.228 c -24.853 0 -45 20.25 -45 45.229 c 0 22.806 16.797 41.66 38.633 44.77 V 58.779 h -10.64 V 46.328 h 10.64 v -9.182 c 0 -10.656 6.441 -16.458 15.849 -16.458 c 4.506 0 8.38 0.339 9.508 0.491 v 11.136 l -6.525 0.003 c -5.116 0 -6.107 2.457 -6.107 6.061 v 7.949 h 12.202 l -1.589 12.451 H 51.359 v 30.993 C 73.199 86.666 90 67.81 90 45.001 C 90 20.022 69.853 -0.228 45 -0.228 z" fill="white" transform=" matrix(1 0 0 1 0 0) " stroke-linecap="round" />
  </g>
</svg>
